<?xml version="1.0" encoding="UTF-8" standalone="no"?>
<svg
   xmlns:dc="http://purl.org/dc/elements/1.1/"
   xmlns:cc="http://creativecommons.org/ns#"
   xmlns:rdf="http://www.w3.org/1999/02/22-rdf-syntax-ns#"
   xmlns:svg="http://www.w3.org/2000/svg"
   xmlns="http://www.w3.org/2000/svg"
   xmlns:sodipodi="http://sodipodi.sourceforge.net/DTD/sodipodi-0.dtd"
   xmlns:inkscape="http://www.inkscape.org/namespaces/inkscape"
   role="img"
   viewBox="0 0 24 24"
   version="1.1"
   id="svg6"
   sodipodi:docname="disqus.svg"
   inkscape:version="1.0.1 (3bc2e813f5, 2020-09-07)">
  <metadata
     id="metadata12">
    <rdf:RDF>
      <cc:Work
         rdf:about="">
        <dc:format>image/svg+xml</dc:format>
        <dc:type
           rdf:resource="http://purl.org/dc/dcmitype/StillImage" />
      </cc:Work>
    </rdf:RDF>
  </metadata>
  <defs
     id="defs10" />
  <sodipodi:namedview
     pagecolor="#ffffff"
     bordercolor="#666666"
     borderopacity="1"
     objecttolerance="10"
     gridtolerance="10"
     guidetolerance="10"
     inkscape:pageopacity="0"
     inkscape:pageshadow="2"
     inkscape:window-width="1890"
     inkscape:window-height="1050"
     id="namedview8"
     showgrid="false"
     inkscape:zoom="26.166667"
     inkscape:cx="12"
     inkscape:cy="12"
     inkscape:window-x="30"
     inkscape:window-y="30"
     inkscape:window-maximized="1"
     inkscape:current-layer="svg6" />
  <title
     id="title2">Disqus icon</title>
  <path
     d="M12.438 23.654c-2.853 0-5.46-1.04-7.476-2.766L0 21.568l1.917-4.733C1.25 15.36.875 13.725.875 12 .875 5.564 6.05.346 12.44.346 18.82.346 24 5.564 24 12c0 6.438-5.176 11.654-11.562 11.654zm6.315-11.687v-.033c0-3.363-2.373-5.76-6.462-5.76H7.877V17.83h4.35c4.12 0 6.525-2.5 6.525-5.863h.004zm-6.415 2.998h-1.29V9.04h1.29c1.897 0 3.157 1.08 3.157 2.945v.03c0 1.884-1.26 2.95-3.157 2.95z"
     id="path4"
     style="fill:#2e8b57;fill-opacity:1" />
</svg>
