<?xml version="1.0" encoding="UTF-8" standalone="no"?>
<svg
   xmlns:dc="http://purl.org/dc/elements/1.1/"
   xmlns:cc="http://creativecommons.org/ns#"
   xmlns:rdf="http://www.w3.org/1999/02/22-rdf-syntax-ns#"
   xmlns:svg="http://www.w3.org/2000/svg"
   xmlns="http://www.w3.org/2000/svg"
   xmlns:sodipodi="http://sodipodi.sourceforge.net/DTD/sodipodi-0.dtd"
   xmlns:inkscape="http://www.inkscape.org/namespaces/inkscape"
   role="img"
   viewBox="0 0 24 24"
   version="1.1"
   id="svg6"
   sodipodi:docname="gridsome.svg"
   inkscape:version="1.0.1 (3bc2e813f5, 2020-09-07)">
  <metadata
     id="metadata12">
    <rdf:RDF>
      <cc:Work
         rdf:about="">
        <dc:format>image/svg+xml</dc:format>
        <dc:type
           rdf:resource="http://purl.org/dc/dcmitype/StillImage" />
      </cc:Work>
    </rdf:RDF>
  </metadata>
  <defs
     id="defs10" />
  <sodipodi:namedview
     pagecolor="#ffffff"
     bordercolor="#666666"
     borderopacity="1"
     objecttolerance="10"
     gridtolerance="10"
     guidetolerance="10"
     inkscape:pageopacity="0"
     inkscape:pageshadow="2"
     inkscape:window-width="1890"
     inkscape:window-height="1050"
     id="namedview8"
     showgrid="false"
     inkscape:zoom="26.166667"
     inkscape:cx="12"
     inkscape:cy="12"
     inkscape:window-x="30"
     inkscape:window-y="30"
     inkscape:window-maximized="1"
     inkscape:current-layer="svg6" />
  <title
     id="title2">Gridsome icon</title>
  <path
     d="M12.026.017l-.108.001C4.905.135-.102 5.975.002 11.956.025 19.286 6.02 24.13 12.083 23.98c7.208-.2 12.323-6.461 11.892-12.05a2.197 2.197 0 0 0-2.192-2.001h-3.15a2.155 2.155 0 0 0-2.161 2.147c0 1.187.967 2.148 2.16 2.148h.788c-.87 2.791-3.62 5.455-7.44 5.56-3.803.095-7.61-2.904-7.768-7.569a2.173 2.173 0 0 0 0-.159c-.148-3.72 2.895-7.637 7.88-7.845a2.096 2.096 0 0 0 2.003-2.183 2.095 2.095 0 0 0-2.07-2.011zm-.018 9.911a2.15 2.15 0 0 0-2.146 2.151 2.15 2.15 0 0 0 2.146 2.152 2.15 2.15 0 0 0 2.147-2.152 2.15 2.15 0 0 0-2.147-2.15Z"
     id="path4"
     style="fill:#2e8b57;fill-opacity:1" />
</svg>
